if (_typeface_js && _typeface_js.loadFace) _typeface_js.loadFace({"glyphs":{"S":{"x_min":6.9375,"x_max":993.640625,"ha":1001,"o":"m 248 972 b 6 730 115 972 6 855 b 227 493 6 604 91 519 l 227 483 l 31 483 l 31 -1 l 755 -1 b 808 473 1036 -1 1087 411 l 808 483 l 977 483 l 977 972 l 248 972 "},"K":{"x_min":41.671875,"x_max":994.453125,"ha":999,"o":"m 41 972 l 41 -1 l 994 -1 l 630 486 l 994 972 l 41 972 "},"7":{"x_min":26.390625,"x_max":998.609375,"ha":989,"o":"m 26 0 l 656 0 b 998 972 770 325 883 647 l 26 972 l 26 506 l 205 506 l 26 0 "},"d":{"x_min":41.671875,"x_max":1013.890625,"ha":1039,"o":"m 527 -1 b 1013 484 795 -1 1013 216 b 527 972 1013 752 795 972 l 41 972 b 41 -1 41 -22 41 993 l 527 -1 "},",":{"x_min":31.9375,"x_max":348.609375,"ha":400,"o":"m 175 -131 l 313 35 b 348 125 334 60 348 92 b 187 280 348 212 277 280 b 31 125 102 280 31 212 b 140 -12 31 63 77 6 l 150 -121 l 175 -131 "},"Y":{"x_min":-11.109375,"x_max":1019.453125,"ha":1008,"o":"m 747 486 l 1019 972 b -11 972 250 972 743 972 l 261 486 l 261 0 l 747 0 l 747 486 "},"E":{"x_min":40.28125,"x_max":845.828125,"ha":886,"o":"m 40 973 l 40 1 l 845 1 l 845 329 l 644 329 l 644 370 l 845 370 l 845 604 l 644 604 l 644 645 l 845 645 l 845 973 l 40 973 "},"y":{"x_min":-11.109375,"x_max":1019.453125,"ha":1008,"o":"m 747 486 l 1019 972 b -11 972 250 972 743 972 l 261 486 l 261 0 l 747 0 l 747 486 "},"„":{"x_min":72.21875,"x_max":754.171875,"ha":861,"o":"m 215 -131 l 354 35 b 388 125 375 60 388 92 b 227 280 388 212 318 280 b 72 125 143 280 72 212 b 180 -12 72 63 118 6 l 190 -121 l 215 -131 m 580 -131 l 719 35 b 754 125 740 60 754 92 b 593 280 754 212 683 280 b 437 125 508 280 437 212 b 545 -12 437 63 483 6 l 555 -121 l 580 -131 "},"g":{"x_min":18.0625,"x_max":1045.828125,"ha":1064,"o":"m 531 487 l 788 933 b 450 995 686 991 565 1013 b 18 487 204 955 18 743 b 531 -26 18 202 247 -26 b 1045 487 816 -26 1045 202 l 531 487 "},"e":{"x_min":40.28125,"x_max":845.828125,"ha":886,"o":"m 40 973 l 40 1 l 845 1 l 845 329 l 644 329 l 644 370 l 845 370 l 845 604 l 644 604 l 644 645 l 845 645 l 845 973 l 40 973 "},"J":{"x_min":34.71875,"x_max":1004.171875,"ha":1044,"o":"m 1004 402 l 1004 973 l 536 973 b 536 433 536 783 536 622 l 494 433 l 494 606 l 34 606 l 34 402 b 1004 402 34 -176 1004 -176 "},"q":{"x_min":16.671875,"x_max":1041.671875,"ha":1061,"o":"m 529 1009 b 16 497 245 1009 16 780 b 529 -15 16 216 247 -15 l 1041 -15 l 1041 -6 l 754 275 l 783 304 l 922 168 b 1041 497 995 256 1041 372 b 529 1009 1041 780 812 1009 "},"b":{"x_min":40.28125,"x_max":907.59375,"ha":931,"o":"m 40 972 l 40 0 b 530 0 208 0 362 0 b 802 520 875 0 1025 356 b 545 972 963 698 811 972 b 40 972 372 972 213 972 "},"D":{"x_min":41.671875,"x_max":1013.890625,"ha":1039,"o":"m 527 -1 b 1013 484 795 -1 1013 216 b 527 972 1013 752 795 972 l 41 972 b 41 -1 41 -22 41 993 l 527 -1 "},"z":{"x_min":38.890625,"x_max":1011.109375,"ha":1050,"o":"m 38 -1 l 1011 -1 l 1011 463 l 831 463 l 1011 972 l 38 972 l 38 505 l 218 505 l 38 -1 "},"w":{"x_min":-36.109375,"x_max":1700,"ha":1664,"o":"m -36 975 l 576 -62 l 808 324 l 709 490 l 740 519 b 1087 -62 855 324 970 135 l 1700 975 b -36 975 615 975 1052 975 "},"’":{"x_min":63.890625,"x_max":380.5625,"ha":451,"o":"m 206 569 l 345 735 b 380 825 366 760 380 792 b 219 980 380 912 309 980 b 63 825 134 980 63 912 b 172 687 63 763 109 706 l 181 578 l 206 569 "},"Q":{"x_min":16.671875,"x_max":1041.671875,"ha":1061,"o":"m 529 1009 b 16 497 245 1009 16 780 b 529 -15 16 216 247 -15 l 1041 -15 l 1041 -6 l 754 275 l 783 304 l 922 168 b 1041 497 995 256 1041 372 b 529 1009 1041 780 812 1009 "},"M":{"x_min":38.890625,"x_max":1013.890625,"ha":1053,"o":"m 41 0 l 1013 0 l 1011 1010 l 525 641 l 38 1010 l 41 0 "},"C":{"x_min":15.28125,"x_max":888.890625,"ha":889,"o":"m 165 848 b 165 125 -34 648 -34 325 b 888 125 365 -75 688 -75 l 526 487 l 888 848 b 165 848 688 1048 365 1048 "},"L":{"x_min":41.671875,"x_max":797.21875,"ha":835,"o":"m 527 486 l 527 972 l 41 972 b 41 0 41 648 41 323 l 797 0 l 797 486 l 527 486 "},"!":{"x_min":38.890625,"x_max":541.671875,"ha":593,"o":"m 38 237 l 38 0 l 541 0 l 541 237 l 38 237 m 38 973 l 38 269 l 541 269 l 541 973 l 38 973 "}," ":{"x_min":0,"x_max":0,"ha":557},"X":{"x_min":2.78125,"x_max":1033.328125,"ha":1039,"o":"m 2 973 l 275 487 l 2 1 b 1033 1 741 1 280 1 l 761 487 l 1033 973 b 2 973 263 973 756 973 "},"P":{"x_min":41.671875,"x_max":904.171875,"ha":922,"o":"m 506 972 l 41 972 b 41 0 41 222 41 1077 l 511 0 l 511 184 b 904 577 727 184 904 362 b 506 972 904 797 725 972 "},"‚":{"x_min":63.890625,"x_max":380.5625,"ha":463,"o":"m 206 -131 l 345 35 b 380 125 366 60 380 92 b 219 280 380 212 309 280 b 63 125 134 280 63 212 b 172 -12 63 63 109 6 l 181 -121 l 206 -131 "},")":{"x_min":36.109375,"x_max":540.625,"ha":629,"o":"m 36 1016 b 36 -112 225 634 240 281 l 387 -112 b 387 1016 593 241 590 661 l 36 1016 "},"T":{"x_min":27.78125,"x_max":904.171875,"ha":933,"o":"m 715 484 l 904 484 l 904 972 l 27 972 l 27 484 l 229 484 l 229 -1 l 715 -1 l 715 484 "},"a":{"x_min":-38.890625,"x_max":1188.890625,"ha":1146,"o":"m -38 0 b 1188 0 1029 0 115 0 l 575 1040 l -38 0 "},"N":{"x_min":41.671875,"x_max":1013.890625,"ha":1053,"o":"m 41 996 l 41 0 b 1013 0 937 0 118 0 l 1013 972 l 530 972 l 530 613 l 41 996 "},"2":{"x_min":33.328125,"x_max":1019.453125,"ha":1032,"o":"m 777 973 l 58 973 l 58 487 l 218 487 l 218 477 b 33 234 97 450 33 352 l 33 0 b 990 0 351 0 670 0 l 990 487 l 798 487 l 798 497 b 1019 730 934 523 1019 604 b 777 973 1019 855 911 973 "},"j":{"x_min":34.71875,"x_max":1004.171875,"ha":1044,"o":"m 1004 402 l 1004 973 l 536 973 b 536 433 536 783 536 622 l 494 433 l 494 606 l 34 606 l 34 402 b 1004 402 34 -176 1004 -176 "},"Z":{"x_min":38.890625,"x_max":1011.109375,"ha":1050,"o":"m 38 -1 l 1011 -1 l 1011 463 l 831 463 l 1011 972 l 38 972 l 38 505 l 218 505 l 38 -1 "},"u":{"x_min":36.109375,"x_max":1008.328125,"ha":1044,"o":"m 36 466 b 522 -19 36 198 254 -19 b 1008 466 790 -19 1008 198 l 1008 975 b 36 975 13 975 1030 975 l 36 466 "},"1":{"x_min":1.390625,"x_max":631.9375,"ha":674,"o":"m 631 972 l 163 972 l 1 506 l 126 506 l 126 0 l 631 0 l 631 972 "},"k":{"x_min":41.671875,"x_max":994.453125,"ha":999,"o":"m 41 972 l 41 -1 l 994 -1 l 630 486 l 994 972 l 41 972 "},"t":{"x_min":27.78125,"x_max":904.171875,"ha":933,"o":"m 715 484 l 904 484 l 904 972 l 27 972 l 27 484 l 229 484 l 229 -1 l 715 -1 l 715 484 "},"W":{"x_min":-36.109375,"x_max":1700,"ha":1664,"o":"m -36 975 l 576 -62 l 808 324 l 709 490 l 740 519 b 1087 -62 855 324 970 135 l 1700 975 b -36 975 615 975 1052 975 "},"v":{"x_min":-31.9375,"x_max":1197.21875,"ha":1164,"o":"m 1197 973 b -31 973 129 973 1041 973 l 583 -68 l 1197 973 "},"B":{"x_min":40.28125,"x_max":907.59375,"ha":926,"o":"m 40 972 l 40 0 b 530 0 208 0 362 0 b 802 520 875 0 1025 356 b 545 972 963 698 811 972 b 40 972 372 972 213 972 "},"s":{"x_min":6.9375,"x_max":993.640625,"ha":1001,"o":"m 248 972 b 6 730 115 972 6 855 b 227 493 6 604 91 519 l 227 483 l 31 483 l 31 -1 l 755 -1 b 808 473 1036 -1 1087 411 l 808 483 l 977 483 l 977 972 l 248 972 "},"…":{"x_min":29.171875,"x_max":1101.390625,"ha":1154,"o":"m 184 280 b 29 126 100 280 29 212 b 184 -19 29 48 100 -19 b 345 126 275 -19 345 48 b 184 280 345 212 275 280 m 562 280 b 406 126 477 280 406 212 b 562 -19 406 48 477 -19 b 723 126 652 -19 723 48 b 562 280 723 212 652 280 m 940 280 b 784 126 855 280 784 212 b 940 -19 784 48 855 -19 b 1101 126 1030 -19 1101 48 b 940 280 1101 212 1030 280 "},"?":{"x_min":26.390625,"x_max":932.21875,"ha":949,"o":"m 177 215 l 177 0 l 651 0 l 651 215 l 177 215 m 930 727 b 869 875 926 787 902 834 b 483 1013 790 969 637 1015 b 26 712 255 1012 26 909 l 26 533 l 288 533 l 288 522 b 177 244 181 498 179 359 l 651 244 b 770 483 654 361 641 459 b 930 727 884 506 943 622 "},"H":{"x_min":41.671875,"x_max":1013.890625,"ha":1057,"o":"m 41 973 l 41 1 l 506 1 l 506 359 l 548 359 l 548 1 l 1013 1 l 1013 973 l 548 973 l 548 615 l 506 615 l 506 973 l 41 973 "},"c":{"x_min":15.28125,"x_max":888.890625,"ha":894,"o":"m 165 848 b 165 125 -34 648 -34 325 b 888 125 365 -75 688 -75 l 526 487 l 888 848 b 165 848 688 1048 365 1048 "},"I":{"x_min":40.28125,"x_max":545.828125,"ha":588,"o":"m 40 972 l 40 0 l 545 0 l 545 972 l 40 972 "},"G":{"x_min":18.0625,"x_max":1045.828125,"ha":1064,"o":"m 531 487 l 788 933 b 450 995 686 991 565 1013 b 18 487 204 955 18 743 b 531 -26 18 202 247 -26 b 1045 487 816 -26 1045 202 l 531 487 "},"(":{"x_min":37.15625,"x_max":541.671875,"ha":567,"o":"m 190 1016 b 190 -112 -12 661 -15 241 l 541 -112 b 541 1016 337 281 352 634 l 190 1016 "},"U":{"x_min":36.109375,"x_max":1008.328125,"ha":1044,"o":"m 36 466 b 522 -19 36 198 254 -19 b 1008 466 790 -19 1008 198 l 1008 975 b 36 975 13 975 1030 975 l 36 466 "},"F":{"x_min":43.0625,"x_max":848.609375,"ha":889,"o":"m 43 972 l 43 0 l 630 0 l 630 290 l 848 290 l 848 602 l 647 602 l 647 644 l 848 644 l 848 972 l 43 972 "},"r":{"x_min":41.671875,"x_max":904.171875,"ha":919,"o":"m 508 972 l 41 972 b 41 -1 41 220 41 1076 b 895 -1 326 -1 611 -1 l 752 266 b 904 576 845 338 904 450 b 508 972 904 795 726 972 "},":":{"x_min":61.109375,"x_max":377.78125,"ha":444,"o":"m 216 280 b 61 126 131 280 61 212 b 216 -19 61 48 131 -19 b 377 126 306 -19 377 48 b 216 280 377 212 306 280 m 216 705 b 61 551 131 705 61 637 b 216 405 61 473 131 405 b 377 551 306 405 377 473 b 216 705 377 637 306 705 "},"x":{"x_min":2.78125,"x_max":1033.328125,"ha":1039,"o":"m 2 973 l 275 487 l 2 1 b 1033 1 741 1 280 1 l 761 487 l 1033 973 b 2 973 263 973 756 973 "},"V":{"x_min":-31.9375,"x_max":1197.21875,"ha":1164,"o":"m 1197 973 b -31 973 129 973 1041 973 l 583 -68 l 1197 973 "},"h":{"x_min":41.671875,"x_max":1013.890625,"ha":1057,"o":"m 41 973 l 41 1 l 506 1 l 506 359 l 548 359 l 548 1 l 1013 1 l 1013 973 l 548 973 l 548 615 l 506 615 l 506 973 l 41 973 "},"0":{"x_min":13.890625,"x_max":1050,"ha":1071,"o":"m 531 1005 b 13 487 245 1005 13 773 b 531 -30 13 201 245 -30 b 1050 487 818 -30 1050 201 b 531 1005 1050 773 818 1005 "},".":{"x_min":29.171875,"x_max":345.828125,"ha":378,"o":"m 184 280 b 29 126 100 280 29 212 b 184 -19 29 48 100 -19 b 345 126 275 -19 345 48 b 184 280 345 212 275 280 "},"”":{"x_min":63.890625,"x_max":734.71875,"ha":790,"o":"m 206 569 l 345 735 b 380 825 366 760 380 792 b 219 980 380 912 309 980 b 63 825 134 980 63 912 b 172 687 63 763 109 706 l 181 578 l 206 569 m 561 569 l 700 735 b 734 825 720 760 734 792 b 573 980 734 912 663 980 b 418 825 488 980 418 912 b 526 687 418 763 463 706 l 536 578 l 561 569 "},";":{"x_min":61.109375,"x_max":377.78125,"ha":444,"o":"m 216 705 b 61 550 131 705 61 637 b 216 405 61 473 131 405 b 377 550 306 405 377 473 b 216 705 377 637 306 705 m 204 -131 l 343 35 b 377 125 363 60 377 92 b 216 280 377 212 306 280 b 61 125 131 280 61 212 b 169 -12 61 63 106 6 l 179 -121 l 204 -131 "},"f":{"x_min":43.0625,"x_max":848.609375,"ha":889,"o":"m 43 972 l 43 0 l 630 0 l 630 290 l 848 290 l 848 602 l 647 602 l 647 644 l 848 644 l 848 972 l 43 972 "},"“":{"x_min":62.5,"x_max":733.328125,"ha":808,"o":"m 590 981 l 451 814 b 416 724 430 789 416 757 b 577 569 416 637 487 569 b 733 724 662 569 733 637 b 625 862 733 786 687 843 l 615 971 l 590 981 m 236 981 l 97 814 b 62 724 76 789 62 757 b 223 569 62 637 133 569 b 379 724 308 569 379 637 b 270 862 379 786 333 843 l 261 971 l 236 981 "},"i":{"x_min":40.28125,"x_max":545.828125,"ha":588,"o":"m 40 972 l 40 0 l 545 0 l 545 972 l 40 972 "},"A":{"x_min":-38.890625,"x_max":1188.890625,"ha":1146,"o":"m -38 0 b 1188 0 1029 0 115 0 l 575 1040 l -38 0 "},"6":{"x_min":18.0625,"x_max":1043.0625,"ha":1068,"o":"m 558 672 b 775 973 638 784 695 861 l 254 973 l 101 759 b 18 477 45 681 18 573 b 538 -41 18 190 202 -44 b 1043 429 852 -40 1043 155 b 725 836 1043 595 952 763 l 591 648 l 558 672 "},"‘":{"x_min":63.890625,"x_max":380.5625,"ha":440,"o":"m 237 996 l 98 829 b 63 739 77 804 63 772 b 225 584 63 652 134 584 b 380 739 309 584 380 652 b 272 877 380 801 334 858 l 262 986 l 237 996 "},"O":{"x_min":13.890625,"x_max":1050,"ha":1071,"o":"m 531 1005 b 13 487 245 1005 13 773 b 531 -30 13 201 245 -30 b 1050 487 818 -30 1050 201 b 531 1005 1050 773 818 1005 "},"n":{"x_min":41.671875,"x_max":1013.890625,"ha":1053,"o":"m 41 996 l 41 0 b 1013 0 937 0 118 0 l 1013 972 l 530 972 l 530 613 l 41 996 "},"3":{"x_min":38.890625,"x_max":906.203125,"ha":921,"o":"m 38 972 l 38 644 l 236 644 l 236 602 l 38 602 l 38 369 l 236 369 l 236 327 l 38 327 l 38 0 b 529 0 206 0 361 0 b 801 520 873 0 1023 356 b 544 972 962 698 809 972 b 38 972 370 972 212 972 "},"9":{"x_min":20.828125,"x_max":1045.828125,"ha":1068,"o":"m 505 298 b 288 -2 425 186 368 109 l 809 -2 l 962 211 b 1045 493 1018 288 1045 397 b 525 1012 1045 780 861 1015 b 20 541 211 1011 20 815 b 338 134 20 375 111 206 l 472 322 l 505 298 "},"m":{"x_min":38.890625,"x_max":1013.890625,"ha":1053,"o":"m 41 0 l 1013 0 l 1011 1010 l 525 641 l 38 1010 l 41 0 "},"8":{"x_min":16.46875,"x_max":961.265625,"ha":974,"o":"m 554 -30 b 848 527 926 -30 1087 351 b 545 1008 1022 719 831 1008 l 425 1008 b 129 527 138 1008 -44 719 b 422 -30 -109 351 51 -30 l 554 -30 "},"l":{"x_min":41.671875,"x_max":797.21875,"ha":835,"o":"m 527 486 l 527 972 l 41 972 b 41 0 41 648 41 323 l 797 0 l 797 486 l 527 486 "},"4":{"x_min":20.828125,"x_max":993.0625,"ha":1033,"o":"m 20 713 b 487 229 20 452 227 238 l 487 0 l 993 0 l 993 972 b 20 972 108 972 905 972 l 20 713 "},"p":{"x_min":41.671875,"x_max":904.171875,"ha":922,"o":"m 506 972 l 41 972 b 41 0 41 222 41 1077 l 511 0 l 511 184 b 904 577 727 184 904 362 b 506 972 904 797 725 972 "},"R":{"x_min":41.671875,"x_max":904.171875,"ha":919,"o":"m 508 972 l 41 972 b 41 -1 41 220 41 1076 b 895 -1 326 -1 611 -1 l 752 266 b 904 576 845 338 904 450 b 508 972 904 795 726 972 "},"5":{"x_min":41.671875,"x_max":1002.78125,"ha":1015,"o":"m 761 0 b 1002 243 894 0 1002 118 b 781 476 1002 368 918 448 l 781 484 l 973 484 l 973 972 l 41 972 l 41 486 l 219 486 l 219 444 l 41 444 l 41 0 b 761 0 280 0 520 0 "},"o":{"x_min":13.890625,"x_max":1050,"ha":1071,"o":"m 531 1005 b 13 487 245 1005 13 773 b 531 -30 13 201 245 -30 b 1050 487 818 -30 1050 201 b 531 1005 1050 773 818 1005 "}}}
